<?xml version="1.0" encoding="utf-8"?>
<!-- Svg Vector Icons : http://www.onlinewebfonts.com/icon -->
<!DOCTYPE svg PUBLIC "-//W3C//DTD SVG 1.1//EN" "http://www.w3.org/Graphics/SVG/1.1/DTD/svg11.dtd">
<svg version="1.1" xmlns="http://www.w3.org/2000/svg" xmlns:xlink="http://www.w3.org/1999/xlink" x="0px" y="0px" viewBox="0 0 256 256" enable-background="new 0 0 256 256" xml:space="preserve">
<metadata> Svg Vector Icons : http://www.onlinewebfonts.com/icon </metadata>
<g><g><path fill="white" d="M243.1,174.7L134.7,67.4c-0.2-0.2-0.4-0.2-0.5-0.4c0,0,0-0.1-0.1-0.1c-3.9-3.8-10.1-3.8-13.9,0L12.8,175.3c-3.8,3.9-3.8,10.1,0,13.9c1.9,1.9,4.4,2.8,6.9,2.8c2.5,0,5.1-1,7-2.9L127.3,87.6l102,101c1.9,1.9,4.4,2.8,6.9,2.8c2.5,0,5.1-1,7-2.9C247,184.8,247,178.6,243.1,174.7L243.1,174.7z"/></g></g>
</svg>